<?xml version="1.0" encoding="UTF-8"?>
<svg id="Layer_1" data-name="Layer 1" xmlns="http://www.w3.org/2000/svg" viewBox="0 0 1762.13 1762.13">
  <defs>
    <style>
      .cls-1 {
        fill: #212e21;
      }

      .cls-2 {
        fill: #ebfc72;
      }
    </style>
  </defs>
  <rect class="cls-2" width="1762.13" height="1762.13" rx="35.61" ry="35.61"/>
  <path class="cls-1" d="M1242.18,709.01h-132.62c-14.64,0-28.53,6.51-37.9,17.76l-242.35,291.11c-13.63,16.38-40.23,8.84-43.23-12.26l-101.02-708.73c-3.9-27.39-29.57-46.21-56.87-41.7l-118.65,19.61c-26.4,4.36-44.5,28.98-40.8,55.48l158.27,1132.56c6.07,43.44,61.58,57.94,88.11,23l114.45-150.68,74.85-90.59,102.84,113.42c8.07,9.78,20.08,15.44,32.76,15.44h192.26c35.68,0,55.45-41.34,33.06-69.12l-208.85-243.79,223.73-270.79c26.57-32.16,3.7-80.73-38.02-80.73Z"/>
</svg>